<svg width="60" height="24" viewBox="0 0 60 24" fill="none" xmlns="http://www.w3.org/2000/svg">
        <path d="M14.213 12.3429C14.213 11.0609 14.7216 10.077 15.7091 9.62981V9.54037H9.87427V9.62981C10.8318 10.077 11.3704 11.0609 11.3704 12.3429V20.3329C11.3704 22.0919 10.3829 23.195 8.64747 23.195C4.99698 23.195 3.23158 19.4087 3.23158 12.0149C3.23158 5.48571 4.66784 1.58012 8.1388 1.58012C10.6822 1.58012 12.0586 3.72671 12.7169 6.55901H12.8066L14.2429 1.58012C12.5972 1.01366 10.8019 0.745341 9.21599 0.745341C3.38119 0.745341 0 5.60497 0 12.5516C0 20.0944 4.3387 23.8509 8.73724 23.8509C11.3405 23.8509 13.7641 23.5528 15.4398 23.2547V23.1652C14.6319 22.8075 14.213 21.9429 14.213 20.6012V12.3429Z" fill="currentcolor"></path>
        <path d="M16.9167 23.5528H21.6145V23.4634C21.016 23.0758 20.6869 22.2112 20.6869 21.0484V8.10932H20.627C19.7593 8.97391 18.2034 9.68944 16.8868 9.68944V9.77888C17.7844 10.1963 17.9939 11.2696 17.9939 12.2534V21.0484C17.9939 22.2112 17.6049 23.046 16.9167 23.4634V23.5528Z" fill="currentcolor"></path>
        <path d="M31.3136 22.0025V24H31.4034C32.4507 23.2547 33.7972 22.8969 35.1137 22.8969V22.8075C34.3059 22.3602 33.9468 21.7043 33.9468 20.3925V8.10932H33.857C33.0192 9.00373 31.5231 9.68944 30.2365 9.68944V9.77888C31.0144 10.1963 31.3136 10.882 31.3136 12.1938V20.154C29.9971 21.4957 28.8002 22.0621 28.0222 22.0621C26.9151 22.0621 26.4064 21.1677 26.4064 19.9155V8.10932H26.3167C25.4788 9.00373 23.9827 9.68944 22.6961 9.68944V9.77888C23.4442 10.1963 23.8032 10.882 23.8032 12.1938V20.8696C23.8032 22.6882 24.7308 24 26.4064 24C28.1419 24 30.1168 22.1516 31.3436 20.482H31.3735C31.3436 20.8398 31.3136 21.436 31.3136 22.0025Z" fill="currentcolor"></path>
        <path d="M39.9391 0H39.8195C39.0116 0.894409 37.4257 1.58012 36.139 1.58012V1.66956C36.7973 2.08696 37.2462 3.04099 37.2462 4.1441V21.0484C37.2462 22.2112 36.8871 23.0161 36.2587 23.4634V23.5528H40.9565V23.4634C40.2982 23.046 39.9391 22.2112 39.9391 21.0484V0Z" fill="currentcolor"></path>
        <path d="M42.2219 23.5528H46.9196V23.4634C46.3212 23.0758 45.992 22.2112 45.992 21.0484V8.10932H45.9322C45.0645 8.97391 43.5085 9.68944 42.1919 9.68944V9.77888C43.0896 10.1963 43.2991 11.2696 43.2991 12.2534V21.0484C43.2991 22.2112 42.9101 23.046 42.2219 23.4634V23.5528Z" fill="currentcolor"></path>
        <path d="M60 22.5689L59.9102 22.4497C59.5811 22.718 59.2519 22.8671 58.9228 22.8671C58.2645 22.8671 57.9653 22.3304 57.9653 21.3466C57.9653 18.6335 58.0551 13.8932 58.0551 11.3888C58.0551 9.36149 56.6188 8.10932 54.1652 8.10932C51.5321 8.10932 48.6296 9.89814 48.6296 11.7764C48.6296 12.5217 49.1383 13.0584 49.7667 13.0584C51.8313 13.0584 51.562 8.7354 53.9857 8.7354C54.9133 8.7354 55.4219 9.45093 55.4219 10.7329C55.4219 11.6273 55.392 13.0882 55.392 14.7279C50.4549 15.6224 48.0312 18.1267 48.0312 20.6311C48.0312 22.6286 49.3777 23.9702 50.9336 23.9702C52.4297 23.9702 54.0156 22.8969 55.3022 21.3466H55.3322C55.3322 21.436 55.3322 21.5255 55.3322 21.6149C55.3322 23.2547 56.2298 24 57.3968 24C58.3543 24 59.4315 23.3739 60 22.5689ZM50.784 19.9155C50.784 18.0075 51.6218 16.0099 55.392 15.1453C55.3621 17.113 55.3322 19.2596 55.3322 20.959C54.2849 21.9727 53.3573 22.3304 52.5793 22.3304C51.4124 22.3304 50.784 21.436 50.784 19.9155Z" fill="currentcolor"></path>
      </svg>